<svg width="141" height="142" viewBox="0 0 141 142" fill="none" xmlns="http://www.w3.org/2000/svg">
<path fill-rule="evenodd" clip-rule="evenodd" d="M131.692 71.0272C131.692 54.7731 125.235 39.1847 113.742 27.6913C102.248 16.1979 86.6599 9.74095 70.4057 9.74095C54.1516 9.74094 38.5632 16.1979 27.0698 27.6913C15.5764 39.1847 9.1195 54.7731 9.1195 71.0272C9.1195 87.2813 15.5764 102.87 27.0698 114.363C38.5632 125.856 54.1516 132.313 70.4057 132.313C86.6599 132.313 102.248 125.857 113.742 114.363C125.235 102.87 131.692 87.2813 131.692 71.0272ZM0.364325 71.0272C0.364327 52.451 7.74366 34.6357 20.879 21.5004C34.0143 8.3651 51.8296 0.985771 70.4057 0.985773C88.9819 0.985774 106.797 8.36511 119.932 21.5004C133.068 34.6357 140.447 52.451 140.447 71.0272C140.447 89.6033 133.068 107.419 119.932 120.554C106.797 133.689 88.9819 141.069 70.4057 141.069C51.8296 141.069 34.0143 133.689 20.879 120.554C7.74366 107.419 0.364323 89.6033 0.364325 71.0272ZM66.0282 40.3841C66.0282 39.2231 66.4894 38.1096 67.3103 37.2886C68.1313 36.4677 69.2447 36.0065 70.4057 36.0065C71.5668 36.0065 72.6802 36.4677 73.5012 37.2886C74.3221 38.1096 74.7833 39.2231 74.7833 40.3841L74.7833 91.1028L93.5719 72.3054C94.3939 71.4834 95.5088 71.0217 96.6713 71.0217C97.8337 71.0217 98.9486 71.4834 99.7706 72.3054C100.593 73.1274 101.054 74.2423 101.054 75.4048C101.054 76.5672 100.593 77.6821 99.7706 78.5041L73.5051 104.77C73.0984 105.177 72.6154 105.501 72.0835 105.721C71.5517 105.942 70.9815 106.056 70.4057 106.056C69.8299 106.056 69.2598 105.942 68.728 105.721C68.1961 105.501 67.713 105.177 67.3064 104.77L41.0409 78.5041C40.2189 77.6821 39.7571 76.5672 39.7571 75.4048C39.7571 74.2423 40.2189 73.1274 41.0409 72.3054C41.8629 71.4834 42.9777 71.0217 44.1402 71.0217C45.3027 71.0217 46.4175 71.4834 47.2395 72.3054L66.0281 91.1028L66.0282 40.3841Z" fill="white"/>
</svg>
