<svg width="839" height="155" viewBox="0 0 839 155" fill="none" xmlns="http://www.w3.org/2000/svg">
<path d="M838.408 36.7419H435.902V42.512H838.408V36.7419Z" fill="white"/>
<path d="M408.685 115.935H0.408112V121.706H408.685V115.935Z" fill="white"/>
<path fill-rule="evenodd" clip-rule="evenodd" d="M440.67 16.4329C437.036 25.5199 432.583 37.1512 430.766 42.6034L427.449 52.5081H375.745H323.949V104.94H410.638L410.048 106.757C410.048 107.303 409.593 108.256 409.23 109.301C408.867 110.346 408.458 111.619 408.094 112.8L406.686 116.935L405.005 123.113C405.005 123.113 403.278 130.792 401.233 139.016C399.189 147.24 397.507 154.191 397.69 154.282C397.871 154.373 409.957 124.614 413.501 114.527L416.908 104.622L436.718 43.603L438.309 36.7878C439.716 32.2443 447.395 0.803348 447.395 0.439869C447.395 0.0763907 444.306 7.5277 440.67 16.4329ZM420.452 73.4991L422.77 66.8201H341.26V73.4082L420.452 73.4991ZM414.682 91.673L417.227 84.2216H341.26V91.7185L414.682 91.673Z" fill="#A400FF"/>
<path fill-rule="evenodd" clip-rule="evenodd" d="M0.590454 106.439V51.2352H59.1104C114.95 51.2352 117.813 51.2352 122.719 52.9163C125.741 53.8835 128.604 55.2921 131.215 57.0963C133.626 59.2947 135.569 61.9568 136.928 64.9234C138.286 67.8899 139.032 71.1 139.121 74.3615H123.582L122.265 71.8626C120.803 69.4682 118.561 67.6518 115.915 66.7203C113.268 65.7888 110.382 65.7994 107.743 66.7502C105.104 67.7011 102.875 69.534 101.431 71.9391C99.9873 74.3441 99.4183 77.1738 99.8201 79.95C99.8018 81.5363 100.101 83.1101 100.699 84.5791C101.298 86.0482 102.184 87.3828 103.306 88.5045C104.428 89.6262 105.762 90.5124 107.231 91.1109C108.7 91.7096 110.274 92.0085 111.861 91.9903C113.934 92.1232 116.001 91.6481 117.81 90.6231C119.618 89.5981 121.087 88.0679 122.037 86.22L123.674 83.4031H139.166C138.748 88.7051 136.929 93.8008 133.897 98.1694C129.819 102.685 124.257 105.587 118.222 106.348C115.586 106.666 88.0979 106.847 57.1567 106.666L0.590454 106.439ZM82.8274 73.4982H20.3092L18.628 66.5921H84.7357C84.1276 67.7189 83.6403 68.9069 83.2818 70.1361C83.0237 71.2398 82.8715 72.3656 82.8274 73.4982ZM82.8274 85.0842H20.3092L17.8103 91.8994C17.8103 91.8994 24.7164 91.6722 56.2026 91.8994C76.6028 91.8994 84.6448 91.8994 84.6448 91.8994C84.0958 90.8936 83.6687 89.826 83.3726 88.7189C83.0092 87.2195 82.8274 85.0842 82.8274 85.0842Z" fill="white"/>
<path d="M284.102 52.1449C280.157 53.0439 276.503 54.9186 273.47 57.597C271.715 59.7318 270.517 62.2697 269.986 64.982C269.455 67.6943 269.606 70.4963 270.426 73.1357C272.653 79.1786 276.423 81.0414 291.19 83.7675C302.185 85.7666 304.139 86.5845 304.139 89.1288C304.139 91.6732 300.913 93.1725 295.052 93.1725C289.191 93.1725 285.192 92.2638 283.966 87.4022H268.7V90.719C268.717 93.9087 269.752 97.0097 271.657 99.5684C273.561 102.127 276.235 104.009 279.286 104.94C289.82 106.756 300.596 106.649 311.09 104.622C313.258 103.837 315.223 102.582 316.848 100.948C318.473 99.314 319.716 97.3408 320.489 95.1697C321.262 92.9987 321.546 90.6837 321.318 88.3904C321.092 86.0971 320.361 83.8823 319.178 81.9046C316.952 78.2244 311.272 75.9073 299.959 74.0899C288.645 72.2725 285.92 71.0458 286.329 68.2288C287.101 63.0493 302.867 61.7771 304.139 70.0461H312.318H320.223L319.769 66.4114C319.436 62.9179 317.938 59.6378 315.515 57.0994C313.092 54.561 309.885 52.9118 306.41 52.4175C299.048 51.0131 291.496 50.9208 284.102 52.1449Z" fill="white"/>
<path d="M142.483 78.8603V104.94H187.918V90.8551H159.794V52.9171H142.483V78.8603Z" fill="white"/>
<path d="M191.962 78.8603V104.94H209.272V52.9171H191.962V78.8603Z" fill="white"/>
<path d="M213.406 78.8149V104.94H230.716V93.3086H240.576C254.661 93.3086 260.249 90.9915 263.792 83.5856C265.421 80.3591 266.07 76.726 265.655 73.1355C265.655 63.5943 262.521 58.2329 255.024 54.9617C252.207 53.7348 248.618 53.1442 232.306 52.9171H213.406V78.8149ZM247.482 69.3191C247.999 69.8551 248.4 70.4934 248.657 71.193C248.915 71.8926 249.023 72.6382 248.976 73.3821C248.93 74.1261 248.728 74.8521 248.385 75.5137C248.041 76.1753 247.564 76.758 246.982 77.2247C245.21 79.133 244.347 79.3146 237.895 79.3146H230.716V66.7747H238.758C245.483 67.0018 245.937 67.5925 247.482 69.3191Z" fill="white"/>
<path d="M413.457 106.121L430.404 54.0525H449.441L457.938 82.6764H459.709L469.16 54.0525H485.88L468.932 106.121H450.349L441.263 77.8603H439.491L430.131 106.121H413.457Z" fill="#A400FF"/>
<path d="M531.541 67.7286H501.599L499.418 74.4529H529.178L525.589 85.4027H495.874L493.602 92.3996H523.498L518.955 106.03H472.021L488.832 53.9618H535.993L531.541 67.7286Z" fill="#A400FF"/>
<path d="M594.241 54.0525L589.698 68.3645H571.523L559.165 106.121H541.99L554.076 68.5916H535.312L539.855 54.2796L594.241 54.0525Z" fill="#A400FF"/>
<path d="M606.371 104.525L597.019 54.0923H613.161L618.376 86.9324H619.724L626.649 54.0923H639.283L646.207 86.9324H647.556L652.727 54.0923H668.913L659.516 104.525H638.024L633.528 80.2705H632.134L627.638 104.525H606.371Z" fill="white"/>
<path d="M716.119 98.2211C710.51 102.992 703.493 105.598 696.254 105.598C689.015 105.598 681.998 102.992 676.389 98.2211C673.894 95.7219 671.938 92.6963 670.653 89.3466C669.368 85.9969 668.783 82.3999 668.936 78.7956C668.785 75.1847 669.371 71.5813 670.655 68.2244C671.941 64.8674 673.895 61.8334 676.389 59.3234C681.998 54.5521 689.015 51.9462 696.254 51.9462C703.493 51.9462 710.51 54.5521 716.119 59.3234C718.621 61.8292 720.584 64.8614 721.877 68.2186C723.169 71.5758 723.762 75.1812 723.616 78.7956C723.761 82.403 723.168 86.0012 721.875 89.3507C720.583 92.7003 718.62 95.7241 716.119 98.2211ZM687.971 87.9232C689.071 89.0333 690.371 89.9032 691.797 90.4819C693.224 91.0607 694.746 91.3366 696.276 91.2934C697.793 91.3372 699.302 91.0613 700.714 90.4822C702.125 89.9031 703.411 89.0326 704.492 87.9232C705.622 86.7251 706.501 85.2948 707.073 83.7236C707.645 82.1522 707.897 80.4741 707.814 78.7956C707.921 77.0796 707.68 75.3593 707.108 73.7464C706.536 72.1336 705.644 70.6643 704.492 69.434C703.411 68.3246 702.125 67.4541 700.714 66.875C699.302 66.2959 697.793 66.02 696.276 66.0638C694.746 66.0206 693.224 66.2966 691.797 66.8753C690.371 67.454 689.071 68.3239 687.971 69.434C686.84 70.6756 685.968 72.149 685.412 73.7606C684.855 75.3722 684.626 77.0868 684.739 78.7956C684.652 80.4664 684.893 82.1382 685.45 83.708C686.006 85.2778 686.864 86.7122 687.971 87.9232Z" fill="white"/>
<path d="M778.363 104.525H762.302L755.564 91.483H743.195V104.525H726.857V54.0923H755.241C769.548 54.0923 776.702 60.5196 776.702 73.3741C776.821 76.2277 776.222 79.0652 774.962 81.6181C773.703 84.1711 771.823 86.3554 769.502 87.9644L778.363 104.525ZM743.195 67.932V79.0977H754.133C755.793 79.1878 757.43 78.672 758.748 77.6433C759.76 76.505 760.32 75.0255 760.32 73.4913C760.32 71.9572 759.76 70.4777 758.748 69.3394C757.425 68.3237 755.787 67.8242 754.133 67.932H743.195Z" fill="white"/>
<path d="M834.161 104.525H817.865L804.99 86.557H803.955L797.473 93.9695V104.525H781.582V54.0923H797.473V74.0778H798.508L815.929 54.0923H833.486L813.859 76.5642L834.161 104.525Z" fill="white"/>
</svg>
