<svg width="428" height="128" viewBox="0 0 428 128" fill="none" xmlns="http://www.w3.org/2000/svg">
<path d="M427.545 1.41357H356.333H307.136V51.2314L398.545 50.9082L405.545 38.669H323.578V31.546H409.545L415.545 21.2716H323.578V15.012H419.545L427.545 1.41357Z" fill="#A400FF"/>
<path fill-rule="evenodd" clip-rule="evenodd" d="M0 52.6553V0.204102H55.5841C108.622 0.204102 111.341 0.204101 116.002 1.80138C118.872 2.72038 121.592 4.0587 124.072 5.773C126.362 7.8618 128.207 10.3912 129.497 13.2098C130.787 16.0285 131.496 19.0785 131.581 22.1775H116.821L115.57 19.8032C114.182 17.5281 112.051 15.8022 109.538 14.9172C107.025 14.0321 104.284 14.0422 101.777 14.9456C99.2704 15.8491 97.1525 17.5906 95.7813 19.8758C94.41 22.1609 93.8696 24.8496 94.2512 27.4874C94.2339 28.9945 94.5178 30.4899 95.0864 31.8857C95.655 33.2815 96.4967 34.5496 97.5621 35.6153C98.6276 36.6811 99.8952 37.5231 101.291 38.0919C102.686 38.6607 104.181 38.9447 105.687 38.9273C107.657 39.0537 109.621 38.6023 111.338 37.6284C113.055 36.6545 114.451 35.2006 115.354 33.4448L116.908 30.7683H131.624C131.226 35.8059 129.499 40.6476 126.618 44.7984C122.745 49.0887 117.462 51.8461 111.729 52.569C109.226 52.8712 83.1172 53.0438 53.7284 52.8712L0 52.6553ZM78.1111 21.3573H18.7294L17.1327 14.7955H79.9237C79.346 15.8661 78.8832 16.9948 78.5427 18.1627C78.2976 19.2114 78.153 20.2811 78.1111 21.3573ZM78.1111 32.3655H18.7294L16.3559 38.841C16.3559 38.841 22.9155 38.6252 52.8221 38.841C72.1989 38.841 79.8374 38.841 79.8374 38.841C79.3158 37.8854 78.9102 36.8709 78.629 35.8191C78.2838 34.3945 78.1111 32.3655 78.1111 32.3655Z" fill="white"/>
<path d="M269.288 1.0684C265.542 1.92263 262.07 3.70383 259.19 6.24876C257.523 8.27719 256.385 10.6884 255.881 13.2656C255.376 15.8427 255.52 18.505 256.299 21.0128C258.413 26.7544 261.995 28.5243 276.021 31.1145C286.464 33.014 288.32 33.791 288.32 36.2086C288.32 38.6261 285.256 40.0507 279.689 40.0507C274.122 40.0507 270.324 39.1873 269.159 34.5681H254.659V37.7195C254.674 40.7502 255.658 43.6965 257.468 46.1277C259.277 48.5588 261.816 50.3473 264.714 51.2316C274.719 52.9574 284.954 52.855 294.923 50.9294C296.98 50.1833 298.848 48.9913 300.391 47.4386C301.935 45.8859 303.116 44.0111 303.85 41.9483C304.584 39.8855 304.853 37.6859 304.637 35.507C304.422 33.328 303.728 31.2236 302.604 29.3446C300.49 25.8478 295.095 23.6462 284.35 21.9194C273.604 20.1926 271.015 19.027 271.403 16.3505C272.137 11.4291 287.111 10.2204 288.32 18.0773H296.088H303.597L303.165 14.6237C302.85 11.3043 301.427 8.18782 299.125 5.77591C296.824 3.36401 293.778 1.79708 290.478 1.32741C283.485 -0.00699554 276.312 -0.0946812 269.288 1.0684Z" fill="white"/>
<path d="M134.774 26.4517V51.2311H177.929V37.8485H151.216V1.80176H134.774V26.4517Z" fill="white"/>
<path d="M181.771 26.4517V51.2311H198.213V1.80176H181.771V26.4517Z" fill="white"/>
<path d="M202.139 26.4085V51.2311H218.581V40.1796H227.946C241.324 40.1796 246.632 37.978 249.998 30.9413C251.546 27.8757 252.161 24.4238 251.768 21.0123C251.768 11.9466 248.79 6.85262 241.669 3.74439C238.994 2.57881 235.585 2.01761 220.092 1.80176H202.139V26.4085ZM234.506 17.386C234.998 17.8954 235.378 18.5019 235.622 19.1666C235.867 19.8313 235.97 20.5397 235.925 21.2466C235.881 21.9534 235.689 22.6432 235.363 23.2718C235.037 23.9005 234.583 24.4542 234.031 24.8976C232.348 26.7107 231.528 26.8834 225.4 26.8834H218.581V14.9685H226.22C232.607 15.1844 233.038 15.7456 234.506 17.386Z" fill="white"/>
<path d="M392.5 62.9399H0V68.4225H389L392.5 62.9399Z" fill="white"/>
<path fill-rule="evenodd" clip-rule="evenodd" d="M0.000732422 128L0.000759125 78H15.8395L35.1284 106H36.8115L36.8122 78H52.6934L52.6934 128H35.0429L17.5218 101H15.8387V128H0.000732422ZM100 91.0538H67.1821V97.5402H100V108.103H67.1821V114.852H100V128H55L55 78H100V91.0538ZM158 91.1107V78L101 78.2177L101 91.1107H120.24L119.926 128H136.286V91.1107H158Z" fill="#A400FF"/>
<path d="M169.971 128L161.035 78H176.526L181.492 110.558H182.787L189.472 78H201.598L208.203 110.558H209.498L214.5 78H230.035L220.976 128H200.35L196.034 103.953H194.697L190.381 128H169.971Z" fill="white"/>
<path d="M274.718 121.125C269.286 125.572 262.49 128 255.479 128C248.469 128 241.673 125.572 236.241 121.125C233.824 118.796 231.93 115.976 230.685 112.855C229.441 109.733 228.874 106.381 229.023 103.022C228.876 99.6567 229.444 96.2986 230.688 93.1702C231.932 90.0417 233.825 87.2142 236.241 84.875C241.673 80.4285 248.469 78 255.479 78C262.49 78 269.286 80.4285 274.718 84.875C277.142 87.2103 279.042 90.0361 280.294 93.1648C281.546 96.2934 282.12 99.6534 281.979 103.022C282.12 106.384 281.545 109.737 280.293 112.858C279.041 115.98 277.141 118.798 274.718 121.125V121.125ZM247.458 111.528C248.523 112.563 249.783 113.373 251.164 113.913C252.545 114.452 254.02 114.709 255.501 114.669C256.97 114.71 258.432 114.453 259.799 113.913C261.166 113.373 262.41 112.562 263.458 111.528C264.552 110.411 265.403 109.079 265.957 107.614C266.511 106.15 266.756 104.586 266.675 103.022C266.778 101.423 266.545 99.8194 265.991 98.3163C265.437 96.8133 264.574 95.444 263.458 94.2974C262.41 93.2635 261.166 92.4523 259.799 91.9126C258.432 91.3729 256.97 91.1158 255.501 91.1566C254.02 91.1164 252.545 91.3736 251.164 91.9129C249.783 92.4522 248.523 93.2629 247.458 94.2974C246.362 95.4545 245.518 96.8276 244.979 98.3295C244.44 99.8314 244.218 101.429 244.327 103.022C244.243 104.579 244.478 106.137 245.016 107.6C245.554 109.063 246.385 110.4 247.458 111.528V111.528Z" fill="white"/>
<path d="M333 128H318.032L311.753 115.07H300.226V128H285V78H311.452C324.785 78 331.452 84.3721 331.452 97.1163C331.563 99.9454 331.005 102.758 329.831 105.29C328.657 107.821 326.905 109.986 324.742 111.581L333 128ZM300.226 91.7209V102.791H310.419C311.966 102.88 313.492 102.369 314.72 101.349C315.663 100.22 316.185 98.7535 316.185 97.2326C316.185 95.7116 315.663 94.2448 314.72 93.1163C313.487 92.1092 311.961 91.6141 310.419 91.7209H300.226Z" fill="white"/>
<path d="M387 128H369.793L351.414 102.242V109.784V120.558V128H336V78H351.414V97.814H352.418L363.722 78H380.751L367.307 100.279L387 128Z" fill="white"/>
</svg>
